<svg xmlns="http://www.w3.org/2000/svg" width="240" height="240" viewBox="0 0 240 240">
    <defs>
        <style>
            .prefix__cls-1{fill:none}.prefix__cls-2{fill:#baf4ee}.prefix__cls-6{fill:#fff}.prefix__cls-7{fill:#ffca1e}.prefix__cls-8{fill:#6d8ea0}.prefix__cls-9{fill:#8cabbd}
        </style>
    </defs>
    <g id="prefix__Group_11251" data-name="Group 11251" transform="translate(-9518 -8789)">
        <path id="prefix__Rectangle_7504" d="M0 0H240V240H0z" class="prefix__cls-1" data-name="Rectangle 7504" transform="translate(9518 8789)"/>
        <g id="prefix__Group_11242" data-name="Group 11242" transform="translate(9528.8 8810.6)">
            <g id="prefix__Group_11227" data-name="Group 11227">
                <g id="prefix__Group_11225" data-name="Group 11225" transform="translate(3.909)">
                    <g id="prefix__Group_11214" data-name="Group 11214">
                        <circle id="prefix__Ellipse_3490" cx="74.707" cy="74.707" r="74.707" class="prefix__cls-2" data-name="Ellipse 3490" transform="rotate(-45 127.533 52.826)"/>
                    </g>
                </g>
                <g id="prefix__Group_11226" data-name="Group 11226" transform="translate(0 4.768)">
                    <path id="prefix__Path_8090" d="M-673.126 131.117a5.228 5.228 0 00-5.228 5.228 5.228 5.228 0 005.228 5.227 5.228 5.228 0 005.228-5.227 5.228 5.228 0 00-5.228-5.228zm0 7.344a2.116 2.116 0 01-2.117-2.116 2.117 2.117 0 012.117-2.117 2.116 2.116 0 012.116 2.117 2.115 2.115 0 01-2.116 2.116z" class="prefix__cls-2" data-name="Path 8090" transform="translate(706.076 4.006)"/>
                    <path id="prefix__Path_8091" d="M-556.379 148.746a5.229 5.229 0 00-5.228 5.228 5.229 5.229 0 005.228 5.228 5.229 5.229 0 005.228-5.228 5.229 5.229 0 00-5.228-5.228zm0 7.345a2.117 2.117 0 01-2.117-2.117 2.116 2.116 0 012.117-2.116 2.115 2.115 0 012.116 2.116 2.116 2.116 0 01-2.116 2.117z" class="prefix__cls-2" data-name="Path 8091" transform="translate(729.425 7.532)"/>
                    <path id="prefix__Path_8092" d="M-520.939 81.079a4 4 0 00-4 4 4 4 0 004 4 4 4 0 004-4 4 4 0 00-4-4zm0 5.623a1.62 1.62 0 01-1.621-1.62 1.62 1.62 0 011.621-1.62 1.62 1.62 0 011.62 1.62 1.62 1.62 0 01-1.62 1.618z" class="prefix__cls-2" data-name="Path 8092" transform="translate(736.758 -6.002)"/>
                    <path id="prefix__Path_8093" d="M-579.639 27.717a4.232 4.232 0 00-4.232 4.232 4.232 4.232 0 004.232 4.232 4.232 4.232 0 004.232-4.232 4.232 4.232 0 00-4.232-4.232zm0 5.946a1.713 1.713 0 01-1.714-1.714 1.713 1.713 0 011.714-1.712 1.713 1.713 0 011.712 1.712 1.713 1.713 0 01-1.712 1.714z" class="prefix__cls-2" data-name="Path 8093" transform="translate(724.972 -16.674)"/>
                    <path id="prefix__Path_8094" d="M-692.42 109.9a4.45 4.45 0 00-4.451 4.45 4.45 4.45 0 004.451 4.45 4.449 4.449 0 004.45-4.45 4.449 4.449 0 00-4.45-4.45z" class="prefix__cls-2" data-name="Path 8094" transform="translate(702.372 -.239)"/>
                    <path id="prefix__Path_8095" d="M-543.848 122.171a3.236 3.236 0 00-3.236 3.236 3.236 3.236 0 003.236 3.236 3.236 3.236 0 003.236-3.236 3.236 3.236 0 00-3.236-3.236z" class="prefix__cls-2" data-name="Path 8095" transform="translate(732.33 2.216)"/>
                    <path id="prefix__Path_8096" d="M-632.915 28.826a4.731 4.731 0 00-4.73 4.73 4.731 4.731 0 004.73 4.73 4.731 4.731 0 004.73-4.73 4.731 4.731 0 00-4.73-4.73z" class="prefix__cls-2" data-name="Path 8096" transform="translate(714.218 -16.453)"/>
                    <path id="prefix__Path_8097" d="M-612.026 171.614a3.447 3.447 0 00-3.446 3.448 3.447 3.447 0 003.446 3.446 3.447 3.447 0 003.446-3.446 3.447 3.447 0 00-3.446-3.448z" class="prefix__cls-2" data-name="Path 8097" transform="translate(718.652 12.105)"/>
                    <path id="prefix__Path_8098" d="M-556.324 44.03a4.047 4.047 0 00-4.046 4.046 4.047 4.047 0 004.046 4.045 4.046 4.046 0 004.045-4.045 4.046 4.046 0 00-4.045-4.046z" class="prefix__cls-2" data-name="Path 8098" transform="translate(729.673 -13.412)"/>
                    <circle id="prefix__Ellipse_3491" cx="2.303" cy="2.303" r="2.303" class="prefix__cls-2" data-name="Ellipse 3491" transform="translate(27.744 62.072)"/>
                    <path id="prefix__Path_8099" d="M-519.787 64.266a3.929 3.929 0 00-3.929 3.929 3.928 3.928 0 003.929 3.929 3.927 3.927 0 003.929-3.929 3.928 3.928 0 00-3.929-3.929z" class="prefix__cls-2" data-name="Path 8099" transform="translate(737.003 -9.365)"/>
                    <circle id="prefix__Ellipse_3492" cx="2.507" cy="2.507" r="2.507" class="prefix__cls-2" data-name="Ellipse 3492" transform="translate(5.238 75.692)"/>
                    <path id="prefix__Path_8100" d="M-606.19 22.483l1.574-1.574a1.407 1.407 0 000-1.985 1.407 1.407 0 00-1.985 0l-1.574 1.574-1.574-1.574a1.407 1.407 0 00-1.985 0 1.407 1.407 0 000 1.985l1.574 1.574-1.574 1.574a1.407 1.407 0 000 1.985 1.407 1.407 0 001.985 0l1.574-1.574 1.574 1.574a1.407 1.407 0 001.985 0 1.407 1.407 0 000-1.985z" class="prefix__cls-2" data-name="Path 8100" transform="translate(719.318 -18.515)"/>
                    <path id="prefix__Path_8101" d="M-695.5 62.133l1.574-1.574a1.407 1.407 0 000-1.985 1.407 1.407 0 00-1.985 0l-1.574 1.574-1.574-1.574a1.407 1.407 0 00-1.985 0 1.409 1.409 0 000 1.985l1.574 1.574-1.574 1.574a1.409 1.409 0 000 1.985 1.409 1.409 0 001.985 0l1.574-1.574 1.574 1.574a1.409 1.409 0 001.985 0 1.407 1.407 0 000-1.985z" class="prefix__cls-2" data-name="Path 8101" transform="translate(701.456 -10.585)"/>
                    <path id="prefix__Path_8102" d="M-540.907 142.149l1.333-1.333a1.193 1.193 0 000-1.681 1.193 1.193 0 00-1.681 0l-1.333 1.333-1.333-1.333a1.193 1.193 0 00-1.681 0 1.193 1.193 0 000 1.681l1.333 1.333-1.333 1.333a1.193 1.193 0 000 1.681 1.193 1.193 0 001.681 0l1.333-1.333 1.333 1.333a1.193 1.193 0 001.681 0 1.193 1.193 0 000-1.681z" class="prefix__cls-2" data-name="Path 8102" transform="translate(732.557 5.54)"/>
                </g>
            </g>
            <g id="prefix__Group_11241" data-name="Group 11241" transform="translate(33.525 81.188)">
                <path id="prefix__Path_8411" d="M-2725.212-852.242a9.333 9.333 0 01-.681 3.464 12.9 12.9 0 01-1.687 3.048 18.74 18.74 0 01-2.4 2.591 27.711 27.711 0 01-2.57 2.093q-1.179.833-2.458 1.575t-1.819 1.006q-.539.264-.863.406a1.157 1.157 0 01-.529.122 1.153 1.153 0 01-.528-.122q-.326-.142-.864-.406t-1.818-1.006q-1.281-.741-2.459-1.575a27.648 27.648 0 01-2.571-2.093 18.8 18.8 0 01-2.4-2.591 12.9 12.9 0 01-1.686-3.048 9.329 9.329 0 01-.681-3.464v-15.606a1.25 1.25 0 01.387-.914 1.25 1.25 0 01.914-.386h23.409a1.253 1.253 0 01.915.386 1.253 1.253 0 01.386.914v15.606zm3.124-20.753a1.6 1.6 0 00-1.169-.493h-29.919a1.6 1.6 0 00-1.169.493 1.6 1.6 0 00-.494 1.169v19.946a11.936 11.936 0 00.87 4.428 16.536 16.536 0 002.156 3.9 24.035 24.035 0 003.064 3.311 35.584 35.584 0 003.286 2.675q1.506 1.064 3.142 2.012t2.324 1.286q.688.337 1.1.519a1.483 1.483 0 00.675.156 1.483 1.483 0 00.675-.156q.415-.181 1.1-.519t2.324-1.286q1.637-.948 3.143-2.012a35.748 35.748 0 003.286-2.675 24.081 24.081 0 003.064-3.311 16.553 16.553 0 002.156-3.9 11.94 11.94 0 00.869-4.428v-19.946a1.6 1.6 0 00-.493-1.169z" data-name="Path 8411" transform="translate(2754.839 873.488)" style="fill:#ddf0eb"/>
                <path id="prefix__Path_8412" d="M-2681.645-857.287a1.252 1.252 0 00-.914-.386h-11.7v31.212a1.159 1.159 0 00.529-.122q.325-.142.864-.406t1.819-1.006q1.28-.741 2.458-1.575a27.792 27.792 0 002.57-2.093 18.775 18.775 0 002.4-2.591 12.905 12.905 0 001.687-3.048 9.328 9.328 0 00.681-3.464v-15.606a1.251 1.251 0 00-.386-.914z" data-name="Path 8412" transform="translate(2710.886 862.012)" style="fill:#89e35b"/>
                <path id="prefix__Path_8413" d="M-2740.357-857.673a1.251 1.251 0 00-.914.386 1.249 1.249 0 00-.386.914v15.606a9.329 9.329 0 00.681 3.464 12.886 12.886 0 001.686 3.048 18.762 18.762 0 002.4 2.591 27.632 27.632 0 002.571 2.093q1.178.833 2.459 1.575t1.818 1.006q.538.264.864.406a1.155 1.155 0 00.528.122v-31.212z" data-name="Path 8413" transform="translate(2745.275 862.012)" style="fill:#50cc1a"/>
                <path id="prefix__Path_8414" d="M-2700.663-832.166a4.347 4.347 0 00-4.347-4.347 4.346 4.346 0 00-4.346 4.347 4.346 4.346 0 002.98 4.126v6.284a1.365 1.365 0 001.366 1.365 1.365 1.365 0 001.366-1.365v-6.284a4.347 4.347 0 002.981-4.126z" class="prefix__cls-6" data-name="Path 8414" transform="translate(2721.836 846.66)"/>
            </g>
            <g id="prefix__Group_11239" data-name="Group 11239" transform="translate(46.547 27.041)">
                <path id="prefix__Path_8386" d="M-2271.3-1373.825a14.841 14.841 0 00.581-10.3 14.9 14.9 0 00-18.618-9.869 14.9 14.9 0 00-9.872 18.617 14.855 14.855 0 006.26 8.2h-.01l.035.015a13.348 13.348 0 001.2.683c1.641 1.044 4.473 3.249 5.5 6.583l6.725-2.065 6.724-2.065c-1.025-3.335.08-6.749.855-8.535.225-.4.425-.818.61-1.239l.015-.03z" class="prefix__cls-7" data-name="Path 8386" transform="translate(2311.705 1406.731)"/>
                <path id="prefix__Path_8387" d="M-2255.894-1343.363l-1.206.163-1.936-14.354 1.2-.162 1.942 14.354z" class="prefix__cls-8" data-name="Path 8387" transform="translate(2291.303 1388.277)"/>
                <path id="prefix__Path_8388" d="M-2270.742-1338.973l-6.454-12.968 1.086-.54 6.449 12.968-1.081.54z" class="prefix__cls-8" data-name="Path 8388" transform="translate(2300.375 1385.66)"/>
                <path id="prefix__Path_8389" d="M-2265.815-1355.394c-.475.146-.825-.253-1.08-.544-.105-.122-.326-.375-.4-.353s-.11.355-.13.517c-.046.383-.11.908-.581 1.053s-.825-.252-1.076-.545c-.1-.121-.33-.376-.4-.353s-.115.356-.136.517c-.045.384-.11.909-.586 1.054s-.82-.254-1.075-.545c-.1-.12-.325-.376-.4-.353s-.115.357-.13.518c-.05.384-.11.908-.586 1.054s-.825-.253-1.08-.543c-.105-.122-.325-.376-.4-.353s-.115.357-.135.517c-.045.384-.11.91-.585 1.054l-.19-.616c.075-.023.115-.357.135-.517.051-.384.11-.909.586-1.055s.825.252 1.081.544c.1.121.325.374.4.352s.115-.357.13-.516c.05-.385.115-.909.585-1.054s.825.251 1.075.544c.11.121.331.374.406.352s.11-.356.13-.515c.045-.384.11-.908.586-1.054s.82.253 1.075.545c.105.123.326.375.4.353s.11-.354.13-.515c.044-.384.11-.91.586-1.055s.82.253 1.075.545c.1.123.325.375.4.351l.19.616z" class="prefix__cls-8" data-name="Path 8389" transform="translate(2299.172 1387.887)"/>
                <path id="prefix__Path_8390" d="M-2259.132-1333.436l2.121 6.909a.9.9 0 01-.595 1.123l-11.728 3.6a.9.9 0 01-1.121-.594l-2.121-6.909 13.444-4.129z" class="prefix__cls-8" data-name="Path 8390" transform="translate(2298.069 1376.144)"/>
                <path id="prefix__Path_8391" d="M-2284.146-1409.817a.365.365 0 01-.451-.24l-2.227-7.26a.361.361 0 01.241-.451.355.355 0 01.445.238l2.232 7.261a.358.358 0 01-.24.451z" class="prefix__cls-7" data-name="Path 8391" transform="translate(2305.194 1418.29)"/>
                <path id="prefix__Path_8392" d="M-2304.444-1397.092a.361.361 0 01-.35-.081l-5.559-5.173a.356.356 0 01-.019-.508.361.361 0 01.51-.019l5.559 5.172a.359.359 0 01.02.51.353.353 0 01-.161.1z" class="prefix__cls-7" data-name="Path 8392" transform="translate(2317.003 1410.888)"/>
                <path id="prefix__Path_8393" d="M-2315.656-1375.923a.352.352 0 01-.19.005l-7.4-1.7a.358.358 0 01-.27-.431.356.356 0 01.43-.27l7.4 1.7a.363.363 0 01.271.432.369.369 0 01-.245.264z" class="prefix__cls-7" data-name="Path 8393" transform="translate(2323.525 1398.573)"/>
                <path id="prefix__Path_8394" d="M-2314.785-1354.209l-7.26 2.229a.364.364 0 01-.455-.239.366.366 0 01.24-.452l7.26-2.23a.368.368 0 01.455.24.366.366 0 01-.24.452z" class="prefix__cls-7" data-name="Path 8394" transform="translate(2323.022 1386.878)"/>
                <path id="prefix__Path_8395" d="M-2258.008-1329.453l-14.574 4.475a.722.722 0 01-.906-.48.725.725 0 01.48-.9l14.574-4.476a.728.728 0 01.906.48.727.727 0 01-.481.905z" class="prefix__cls-9" data-name="Path 8395" transform="translate(2298.539 1374.861)"/>
                <path id="prefix__Path_8396" d="M-2256.357-1324.073l-14.575 4.475a.725.725 0 01-.906-.48.73.73 0 01.48-.905l14.575-4.476a.729.729 0 01.905.48.729.729 0 01-.48.906z" class="prefix__cls-9" data-name="Path 8396" transform="translate(2297.714 1372.173)"/>
                <path id="prefix__Path_8397" d="M-2307.232-1331.678a.357.357 0 01-.35-.081.362.362 0 01-.02-.509l5.173-5.561a.361.361 0 01.51-.018.356.356 0 01.015.509l-5.173 5.563a.318.318 0 01-.156.1z" class="prefix__cls-7" data-name="Path 8397" transform="translate(2315.615 1378.396)"/>
                <path id="prefix__Path_8398" d="M-2282.59-1320.459a.347.347 0 01-.185.006.358.358 0 01-.27-.432l1.7-7.4a.359.359 0 01.43-.272.361.361 0 01.27.433l-1.7 7.4a.349.349 0 01-.245.264z" class="prefix__cls-7" data-name="Path 8398" transform="translate(2303.303 1373.714)"/>
                <path id="prefix__Path_8399" d="M-2236.644-1334.06a.351.351 0 01-.351-.081l-5.558-5.173a.355.355 0 01-.021-.508.36.36 0 01.511-.019l5.558 5.173a.359.359 0 01.021.508.354.354 0 01-.16.1z" class="prefix__cls-7" data-name="Path 8399" transform="translate(2283.124 1379.392)"/>
                <path id="prefix__Path_8400" d="M-2225.426-1355.234a.376.376 0 01-.19.007l-7.4-1.7a.358.358 0 01-.271-.431.359.359 0 01.431-.271l7.4 1.7a.363.363 0 01.27.432.371.371 0 01-.245.265z" class="prefix__cls-7" data-name="Path 8400" transform="translate(2278.441 1388.236)"/>
                <path id="prefix__Path_8401" d="M-2226.3-1381.408l-7.265 2.23a.36.36 0 01-.45-.24.363.363 0 01.24-.449l7.26-2.23a.361.361 0 01.45.237.363.363 0 01-.235.452z" class="prefix__cls-7" data-name="Path 8401" transform="translate(2278.805 1400.469)"/>
                <path id="prefix__Path_8402" d="M-2244.2-1399.476a.354.354 0 01-.35-.08.363.363 0 01-.021-.51l5.173-5.562a.361.361 0 01.511-.018.357.357 0 01.015.509l-5.169 5.562a.359.359 0 01-.159.1z" class="prefix__cls-7" data-name="Path 8402" transform="translate(2284.122 1412.274)"/>
                <path id="prefix__Path_8403" d="M-2261.9-1410.689a.357.357 0 01-.185.006.358.358 0 01-.27-.431l1.7-7.4a.362.362 0 01.431-.271.359.359 0 01.27.432l-1.7 7.4a.358.358 0 01-.246.264z" class="prefix__cls-7" data-name="Path 8403" transform="translate(2292.964 1418.798)"/>
                <path id="prefix__Path_8404" d="M-2284.146-1409.817a.365.365 0 01-.451-.24l-2.227-7.26a.361.361 0 01.241-.451.355.355 0 01.445.238l2.232 7.261a.358.358 0 01-.24.451z" class="prefix__cls-7" data-name="Path 8404" transform="translate(2305.194 1418.29)"/>
                <path id="prefix__Path_8405" d="M-2255.147-1316.164l-7.089 2.177a1.707 1.707 0 01-2.127-1.129 1.7 1.7 0 011.125-2.13l7.09-2.177a1.705 1.705 0 012.126 1.129 1.708 1.708 0 01-1.126 2.13z" class="prefix__cls-8" data-name="Path 8405" transform="translate(2294.003 1369.18)"/>
            </g>
            <path id="prefix__Path_8406" d="M-2438.512-1311.4a8.752 8.752 0 006.631-2.075 8.753 8.753 0 003.223-6.157 8.756 8.756 0 00-2.073-6.632 8.761 8.761 0 00-6.161-3.224 8.754 8.754 0 00-6.632 2.074 8.737 8.737 0 00-3.223 6.159 8.77 8.77 0 002.074 6.633 8.771 8.771 0 006.162 3.221zm21.245 9.386l-6.046 5.049a1.364 1.364 0 01-.81.305 1.077 1.077 0 01-.809-.25l-4.967-4.4a23.063 23.063 0 01-3.362 1.008c-.378 1.393-.825 3.411-1.325 6.05a1.379 1.379 0 01-.457.841 1.2 1.2 0 01-.832.279 36.093 36.093 0 01-5.19-.24q-3.575-.346-4.072-.944a1.746 1.746 0 01-.347-.911l-.193-6.215a20.229 20.229 0 01-3.107-1.612 58.234 58.234 0 01-5.722 3.44 1.193 1.193 0 01-1.581-.345l-5.051-6.043a1.372 1.372 0 01-.323-.86 1.054 1.054 0 01.323-.8l4.373-4.946a21.4 21.4 0 01-1.033-3.293l-6.123-1.405a1.28 1.28 0 01-.818-.475 1.244 1.244 0 01-.27-.931 47.353 47.353 0 01.825-8.312 1.383 1.383 0 01.47-.714 1.365 1.365 0 01.809-.3c.6-.045 1.6-.086 2.969-.125s2.422-.079 3.147-.131a17.16 17.16 0 011.759-3.367l-3.425-5.6a1.116 1.116 0 01-.139-.857 1.34 1.34 0 01.463-.752l6.038-5.047a1.39 1.39 0 01.809-.306 1.06 1.06 0 01.786.222l4.989 4.425a17.757 17.757 0 013.394-1.028q.646-2.386 1.326-6.05a1.352 1.352 0 01.425-.82 1.529 1.529 0 01.832-.278 35.656 35.656 0 015.166.237q3.6.348 4.095.948a1.476 1.476 0 01.316.936l.231 6.188a20.5 20.5 0 013.1 1.614 57.75 57.75 0 015.722-3.44 1.2 1.2 0 011.581.344l5.051 6.042a1.382 1.382 0 01.323.861 1.033 1.033 0 01-.323.8l-4.373 4.946a21.485 21.485 0 011.041 3.292l6.138 1.433a1.145 1.145 0 01.794.451 1.381 1.381 0 01.293.9 48.342 48.342 0 01-.872 8.358 1.189 1.189 0 01-.446.692 1.357 1.357 0 01-.8.3c-.61.047-1.6.088-2.976.124s-2.414.081-3.147.133a20.553 20.553 0 01-1.735 3.344l3.4 5.618a1.112 1.112 0 01.139.858 1.361 1.361 0 01-.454.751z" data-name="Path 8406" transform="translate(2552.866 1418.403)" style="fill:#9486b3"/>
            <g id="prefix__Group_11238" data-name="Group 11238" transform="translate(39.6 68.4)">
                <path id="prefix__Rectangle_7490" d="M0 0H140.4V140.4H0z" class="prefix__cls-1" data-name="Rectangle 7490"/>
                <g id="prefix__Group_10875" data-name="Group 10875" transform="translate(17.857 34.191)">
                    <g id="prefix__Group_10871" data-name="Group 10871" transform="translate(0 5.866)">
                        <g id="prefix__mail">
                            <path id="prefix__Path_7799" d="M108.376 217.241L54.2 245.114.213 217.09l-.213.171v62.068a9.7 9.7 0 002.981 6.983 10.288 10.288 0 007.182 2.9h88.078a10.2 10.2 0 007.947-3.8 9.6 9.6 0 002.216-6.081v-62.07zm0 0" data-name="Path 7799" transform="translate(0 -217.09)" style="fill:#448aff"/>
                            <path id="prefix__Path_7800" d="M65.3 320.258l-15.458-8.026-35.764 49.227a10.282 10.282 0 007.182 2.9h88.078a10.2 10.2 0 007.947-3.8l-35.373-48.848zm0 0" data-name="Path 7800" transform="translate(-11.097 -292.234)" style="fill:#2979ff"/>
                        </g>
                    </g>
                    <path id="prefix__Path_8064" d="M22.91 3.933a17.947 17.947 0 0122.423 0l16.139 12.911c13.248 10.6 5.754 31.962-11.212 31.962H17.983c-16.965 0-24.459-21.364-11.212-31.962z" data-name="Path 8064" transform="rotate(180 43.922 24.403)" style="fill:#00eed0"/>
                    <g id="prefix__Group_10874" data-name="Group 10874" transform="rotate(-45 44.498 -37.78)">
                        <path id="prefix__Path_7815" d="M25.872 14.789a2.61 2.61 0 01-2.647 2.573H3.528a3.638 3.638 0 01-.881-.109A3.453 3.453 0 010 13.933V2.573A2.611 2.611 0 012.647 0a2.61 2.61 0 012.646 2.573v9.643h17.933a2.611 2.611 0 012.646 2.573zm0 0" class="prefix__cls-6" data-name="Path 7815"/>
                    </g>
                </g>
            </g>
            <g id="prefix__Group_11240" data-name="Group 11240" transform="translate(144.78 88.437)">
                <path id="prefix__Path_8407" d="M-2344.124-1271.271l-.892 2.6 1.3 2.649 1.795.614 1.77-1.951.65 2.779 6.231 2.131 1.567-4.577-12.422-4.248z" class="prefix__cls-7" data-name="Path 8407" transform="translate(2345.016 1271.271)"/>
                <path id="prefix__Path_8408" d="M-2298.826-1254.507a1.66 1.66 0 01-1.034-2.107 1.66 1.66 0 012.107-1.033 1.66 1.66 0 011.035 2.107 1.659 1.659 0 01-2.107 1.033zm-.082-7.238a5.163 5.163 0 00-6.555 3.216 5.161 5.161 0 003.216 6.555 5.162 5.162 0 006.555-3.214 5.165 5.165 0 00-3.216-6.556z" class="prefix__cls-7" data-name="Path 8408" transform="translate(2316.519 1264.561)"/>
            </g>
            <path id="prefix__Path_8409" d="M-1897.774-1249.306a1.367 1.367 0 01-.409 1l-10.614 10.64-1.992 2a1.361 1.361 0 01-1 .412 1.356 1.356 0 01-1-.409l-2-1.993-5.318-5.306a1.366 1.366 0 01-.414-1 1.36 1.36 0 01.412-1l1.992-2a1.357 1.357 0 011-.413 1.352 1.352 0 011 .41l4.322 4.323 9.615-9.654a1.356 1.356 0 011-.413 1.358 1.358 0 011 .41l2 1.993a1.37 1.37 0 01.414 1z" data-name="Path 8409" transform="translate(2084.578 1317.437)" style="fill:#7fc21e"/>
            <path id="prefix__Path_8410" d="M-2022.139-1397.8a22.259 22.259 0 00-.705-5.087l3.359-1.3a11.3 11.3 0 012.272 6.385zm2.653 7.4l-3.356-1.3a22.234 22.234 0 00.7-5.078h4.928a11.294 11.294 0 01-2.272 6.377zm-6.075 4.064a12.067 12.067 0 002.417-4.348 13.8 13.8 0 012.95 1.127 11.033 11.033 0 01-5.367 3.22zm-.881-.484a3.472 3.472 0 01-1.463.811 1.549 1.549 0 01-.156.025v-5.366a22.12 22.12 0 014.023.456c-.225.549-.428 1.087-.667 1.607a7.328 7.328 0 01-1.737 2.467zm-1.638-9.745c0-.149.014-.236.2-.236 1.52.007 3.04 0 4.56 0a1.726 1.726 0 01.176.021c-.022.479-.011.956-.077 1.422-.154 1.1-.346 2.2-.519 3.3-.022.138-.08.195-.228.162a22.146 22.146 0 00-3.847-.453c-.079 0-.159-.011-.25-.017-.005-.077-.016-.139-.016-.2v-4.006zm.022-12.059c.214.071.417.123.609.207a4.518 4.518 0 011.772 1.488 10.773 10.773 0 011.608 3.234 20.017 20.017 0 01-3.99.447v-5.376zm4.9 10.637c0 .055-.006.111-.009.189h-4.892v-4.428c.455-.029.914-.038 1.366-.092.892-.108 1.781-.234 2.67-.369.184-.028.247 0 .291.191a21.172 21.172 0 01.574 4.509zm2.963-7.043a13.808 13.808 0 01-2.9 1.118c-.346-.768-.67-1.533-1.037-2.277a9.2 9.2 0 00-1.427-2.055 11.031 11.031 0 015.367 3.214zm-8.877 12.513a1.425 1.425 0 01-.019.158c-.467.03-.936.039-1.394.094q-1.317.156-2.623.363c-.214.034-.274-.009-.321-.21a21.548 21.548 0 01-.568-4.51c0-.048.008-.095.014-.156.069-.006.129-.017.192-.017h4.489c.148 0 .236.013.236.2-.008 1.36-.006 2.72-.006 4.08zm-.016 6.558c-.214-.072-.417-.123-.609-.207a4.237 4.237 0 01-1.561-1.221 10.407 10.407 0 01-1.828-3.513 21.907 21.907 0 014-.45v5.391zm-7.856-3.6a14.012 14.012 0 012.936-1.121 11.628 11.628 0 002.437 4.332c-1.232-.024-4.231-1.816-5.373-3.211zm-.719-.836a11.319 11.319 0 01-2.275-6.384h4.928a22.108 22.108 0 00.7 5.086l-3.356 1.3zm0-13.787l3.356 1.3a22.053 22.053 0 00-.7 5.082h-4.928a11.315 11.315 0 012.272-6.381zm6.075-4.062a11.991 11.991 0 00-2.412 4.344 13.859 13.859 0 01-2.95-1.128 11.028 11.028 0 015.367-3.22zm1.029.358a2.88 2.88 0 011.471-.693v5.335a19.753 19.753 0 01-4.017-.455c.222-.544.423-1.092.67-1.618a7.105 7.105 0 011.877-2.569zm1.487 5.871v4.009c0 .155-.028.23-.209.229-1.52-.007-3.043 0-4.563 0-.038 0-.077 0-.167-.012.022-.493.011-.971.077-1.438.154-1.1.346-2.2.521-3.3.019-.124.066-.188.206-.158a23.393 23.393 0 004.017.464.484.484 0 01.1.023c.005.068.013.13.013.193zm12.721 2.912a12.239 12.239 0 00-4.162-7.508 12.2 12.2 0 00-6.364-2.927c-.293-.044-.587-.077-.878-.114h-1.644c-.332.046-.664.087-1 .139a12.135 12.135 0 00-6.451 3.081 12.041 12.041 0 00-3.877 6.866 11.943 11.943 0 002.642 10.129 11.949 11.949 0 007.252 4.3 11.9 11.9 0 009.859-2.456 12.2 12.2 0 004.593-7.685c.071-.395.11-.792.165-1.19v-1.642c-.047-.332-.088-.664-.14-.995z" data-name="Path 8410" transform="translate(2159.96 1451.718)" style="fill:#8eded4;fill-rule:evenodd"/>
        </g>
    </g>
</svg>
