<svg xmlns="http://www.w3.org/2000/svg" id="prefix__Group_11249" width="240" height="240" data-name="Group 11249" viewBox="0 0 240 240">
    <defs>
        <style>
            .prefix__cls-2{fill:#baf4ee}.prefix__cls-3{fill:#00c8b7}.prefix__cls-4{fill:#f5f5f3}.prefix__cls-5{fill:#fff}.prefix__cls-6{fill:#d3d2cb}.prefix__cls-8{fill:#ff8b07}.prefix__cls-10{fill:#009ad3}
        </style>
    </defs>
    <path id="prefix__Rectangle_7503" d="M0 0H240V240H0z" data-name="Rectangle 7503" style="fill:none"/>
    <g id="prefix__Group_11235" data-name="Group 11235" transform="translate(12 15.601)">
        <g id="prefix__Group_11229" data-name="Group 11229">
            <g id="prefix__Group_11225" data-name="Group 11225" transform="translate(3.909)">
                <g id="prefix__Group_11214" data-name="Group 11214">
                    <circle id="prefix__Ellipse_3490" cx="74.707" cy="74.707" r="74.707" class="prefix__cls-2" data-name="Ellipse 3490" transform="rotate(-45 127.533 52.826)"/>
                </g>
            </g>
            <g id="prefix__Group_11226" data-name="Group 11226" transform="translate(0 4.768)">
                <path id="prefix__Path_8090" d="M-673.126 131.117a5.228 5.228 0 00-5.228 5.228 5.228 5.228 0 005.228 5.227 5.228 5.228 0 005.228-5.227 5.228 5.228 0 00-5.228-5.228zm0 7.344a2.116 2.116 0 01-2.117-2.116 2.117 2.117 0 012.117-2.117 2.116 2.116 0 012.116 2.117 2.115 2.115 0 01-2.116 2.116z" class="prefix__cls-2" data-name="Path 8090" transform="translate(706.076 4.006)"/>
                <path id="prefix__Path_8091" d="M-556.379 148.746a5.229 5.229 0 00-5.228 5.228 5.229 5.229 0 005.228 5.228 5.229 5.229 0 005.228-5.228 5.229 5.229 0 00-5.228-5.228zm0 7.345a2.117 2.117 0 01-2.117-2.117 2.116 2.116 0 012.117-2.116 2.115 2.115 0 012.116 2.116 2.116 2.116 0 01-2.116 2.117z" class="prefix__cls-2" data-name="Path 8091" transform="translate(729.425 7.532)"/>
                <path id="prefix__Path_8092" d="M-520.939 81.079a4 4 0 00-4 4 4 4 0 004 4 4 4 0 004-4 4 4 0 00-4-4zm0 5.623a1.62 1.62 0 01-1.621-1.62 1.62 1.62 0 011.621-1.62 1.62 1.62 0 011.62 1.62 1.62 1.62 0 01-1.62 1.618z" class="prefix__cls-2" data-name="Path 8092" transform="translate(736.758 -6.002)"/>
                <path id="prefix__Path_8093" d="M-579.639 27.717a4.232 4.232 0 00-4.232 4.232 4.232 4.232 0 004.232 4.232 4.232 4.232 0 004.232-4.232 4.232 4.232 0 00-4.232-4.232zm0 5.946a1.713 1.713 0 01-1.714-1.714 1.713 1.713 0 011.714-1.712 1.713 1.713 0 011.712 1.712 1.713 1.713 0 01-1.712 1.714z" class="prefix__cls-2" data-name="Path 8093" transform="translate(724.972 -16.674)"/>
                <path id="prefix__Path_8094" d="M-692.42 109.9a4.45 4.45 0 00-4.451 4.45 4.45 4.45 0 004.451 4.45 4.449 4.449 0 004.45-4.45 4.449 4.449 0 00-4.45-4.45z" class="prefix__cls-2" data-name="Path 8094" transform="translate(702.372 -.239)"/>
                <path id="prefix__Path_8095" d="M-543.848 122.171a3.236 3.236 0 00-3.236 3.236 3.236 3.236 0 003.236 3.236 3.236 3.236 0 003.236-3.236 3.236 3.236 0 00-3.236-3.236z" class="prefix__cls-2" data-name="Path 8095" transform="translate(732.33 2.216)"/>
                <path id="prefix__Path_8096" d="M-632.915 28.826a4.731 4.731 0 00-4.73 4.73 4.731 4.731 0 004.73 4.73 4.731 4.731 0 004.73-4.73 4.731 4.731 0 00-4.73-4.73z" class="prefix__cls-2" data-name="Path 8096" transform="translate(714.218 -16.453)"/>
                <path id="prefix__Path_8097" d="M-612.026 171.614a3.447 3.447 0 00-3.446 3.448 3.447 3.447 0 003.446 3.446 3.447 3.447 0 003.446-3.446 3.447 3.447 0 00-3.446-3.448z" class="prefix__cls-2" data-name="Path 8097" transform="translate(718.652 12.105)"/>
                <path id="prefix__Path_8098" d="M-556.324 44.03a4.047 4.047 0 00-4.046 4.046 4.047 4.047 0 004.046 4.045 4.046 4.046 0 004.045-4.045 4.046 4.046 0 00-4.045-4.046z" class="prefix__cls-2" data-name="Path 8098" transform="translate(729.673 -13.412)"/>
                <circle id="prefix__Ellipse_3491" cx="2.303" cy="2.303" r="2.303" class="prefix__cls-2" data-name="Ellipse 3491" transform="translate(27.744 62.072)"/>
                <path id="prefix__Path_8099" d="M-519.787 64.266a3.929 3.929 0 00-3.929 3.929 3.928 3.928 0 003.929 3.929 3.927 3.927 0 003.929-3.929 3.928 3.928 0 00-3.929-3.929z" class="prefix__cls-2" data-name="Path 8099" transform="translate(737.003 -9.365)"/>
                <circle id="prefix__Ellipse_3492" cx="2.507" cy="2.507" r="2.507" class="prefix__cls-2" data-name="Ellipse 3492" transform="translate(5.238 75.692)"/>
                <path id="prefix__Path_8100" d="M-606.19 22.483l1.574-1.574a1.407 1.407 0 000-1.985 1.407 1.407 0 00-1.985 0l-1.574 1.574-1.574-1.574a1.407 1.407 0 00-1.985 0 1.407 1.407 0 000 1.985l1.574 1.574-1.574 1.574a1.407 1.407 0 000 1.985 1.407 1.407 0 001.985 0l1.574-1.574 1.574 1.574a1.407 1.407 0 001.985 0 1.407 1.407 0 000-1.985z" class="prefix__cls-2" data-name="Path 8100" transform="translate(719.318 -18.515)"/>
                <path id="prefix__Path_8101" d="M-695.5 62.133l1.574-1.574a1.407 1.407 0 000-1.985 1.407 1.407 0 00-1.985 0l-1.574 1.574-1.574-1.574a1.407 1.407 0 00-1.985 0 1.409 1.409 0 000 1.985l1.574 1.574-1.574 1.574a1.409 1.409 0 000 1.985 1.409 1.409 0 001.985 0l1.574-1.574 1.574 1.574a1.409 1.409 0 001.985 0 1.407 1.407 0 000-1.985z" class="prefix__cls-2" data-name="Path 8101" transform="translate(701.456 -10.585)"/>
                <path id="prefix__Path_8102" d="M-540.907 142.149l1.333-1.333a1.193 1.193 0 000-1.681 1.193 1.193 0 00-1.681 0l-1.333 1.333-1.333-1.333a1.193 1.193 0 00-1.681 0 1.193 1.193 0 000 1.681l1.333 1.333-1.333 1.333a1.193 1.193 0 000 1.681 1.193 1.193 0 001.681 0l1.333-1.333 1.333 1.333a1.193 1.193 0 001.681 0 1.193 1.193 0 000-1.681z" class="prefix__cls-2" data-name="Path 8102" transform="translate(732.557 5.54)"/>
            </g>
        </g>
        <g id="prefix__Group_11234" data-name="Group 11234" transform="translate(60.725 62.225)">
            <path id="prefix__Path_8072" d="M1.534 3.374c.173-1 .392-2 .652-2.972L.682 0C.409 1.015.181 2.062 0 3.109z" class="prefix__cls-3" data-name="Path 8072" transform="translate(81.793)"/>
            <path id="prefix__Path_8073" d="M92.609 28.846a12.86 12.86 0 006.251-2.086l-.86-1.3a11.317 11.317 0 01-5.494 1.829zm-6.464-1.27l.688-1.4a15.657 15.657 0 01-4.656-3.665l-1.158 1.039a17.183 17.183 0 005.125 4.027zm17.046-5.785a12.848 12.848 0 001.342-5.655c0-.157 0-.316-.011-.473l-.018-.337-1.552.114.016.283c0 .14.008.277.008.413a11.291 11.291 0 01-1.181 4.966zm-60.21-.355l.007-1.556c-2.027-.01-4.114-.092-6.2-.246l-.114 1.552c2.121.155 4.242.24 6.306.25zm6.312-.2l.994-.077c1.913-.16 3.646-.376 5.3-.661l-.267-1.538c-1.608.278-3.3.488-5.164.644l-.972.073zM30.4 20.524l.21-1.542c-2-.272-4.066-.613-6.132-1.012l-.3 1.528c2.104.402 4.196.75 6.222 1.026zm31.364-1.573a30.128 30.128 0 005.1-2.258c.245-.137.487-.28.728-.425l-.8-1.333c-.227.137-.455.271-.686.4a28.632 28.632 0 01-4.836 2.143zm15.53-.62l1.35-.774a34.856 34.856 0 01-2.567-5.55l-1.464.528A36.472 36.472 0 0077.3 18.33zm-59.262-.172l.366-1.512c-1.946-.473-3.972-1.009-6.019-1.595l-.428 1.5c2.072.588 4.118 1.129 6.086 1.607zM5.945 14.712l.48-1.481Q3.457 12.27.52 11.224L0 12.69q2.956 1.051 5.945 2.022zm66.845-2.051a43.074 43.074 0 014.633-3.048l.52-.276-.713-1.384c-.185.095-.371.194-.553.294a44.96 44.96 0 00-4.8 3.156zm27.982-2.34l1.087-1.112a13.282 13.282 0 00-5.726-3.073L95.609 7.6a12.119 12.119 0 015.162 2.721zM83.627 7.283a24.735 24.735 0 015.394-.6l.631.008.037-1.556a26.375 26.375 0 00-6.4.628zm-10.653-.917l1.532-.272A36.139 36.139 0 0173.953 0L72.4.007a37.533 37.533 0 00.574 6.359z" class="prefix__cls-3" data-name="Path 8073" transform="translate(8.87 9.468)"/>
            <path id="prefix__Path_8074" d="M2.912 2.576l.553-1.454Q2.015.568.565 0L0 1.451q1.451.567 2.912 1.125z" class="prefix__cls-3" data-name="Path 8074" transform="translate(0 17.388)"/>
        </g>
        <g id="prefix__Group_11231" data-name="Group 11231" transform="translate(21.031 46.592)">
            <path id="prefix__Path_8372" d="M-2643.64-749.832h-6.81V-769.5a12.4 12.4 0 00-12.388-12.387 12.4 12.4 0 00-12.387 12.387v17.121h-6.811V-769.5a19.22 19.22 0 0119.2-19.2 19.22 19.22 0 0119.2 19.2v19.667z" class="prefix__cls-4" data-name="Path 8372" transform="translate(2688.458 788.697)"/>
            <path id="prefix__Path_8373" d="M-2662.839-788.7a19.22 19.22 0 00-19.2 19.2v.86a19.22 19.22 0 0119.2-19.2 19.22 19.22 0 0119.2 19.2v-.86a19.22 19.22 0 00-19.2-19.2z" class="prefix__cls-5" data-name="Path 8373" transform="translate(2688.458 788.697)"/>
            <path id="prefix__Path_8374" d="M-2607.185-737.912a12.4 12.4 0 00-12.388-12.388 12.4 12.4 0 00-12.388 12.388v1.588a12.4 12.4 0 0112.388-12.387 12.4 12.4 0 0112.388 12.387v-1.588z" class="prefix__cls-6" data-name="Path 8374" transform="translate(2645.193 755.522)"/>
            <path id="prefix__Path_8375" d="M-2729.243-587.455v37.655a2.939 2.939 0 002.939 2.939h46.4a2.939 2.939 0 002.938-2.939v-37.658a2.938 2.938 0 00-2.938-2.939h-46.4a2.939 2.939 0 00-2.939 2.939z" data-name="Path 8375" transform="translate(2729.243 617.367)" style="fill:#febd07"/>
            <path id="prefix__Path_8376" d="M-2577.533-495.771v12.252h-5.568v-12.252a6.807 6.807 0 01-4.028-6.212 6.812 6.812 0 016.811-6.812 6.812 6.812 0 016.811 6.812 6.807 6.807 0 01-4.026 6.212z" class="prefix__cls-8" data-name="Path 8376" transform="translate(2606.458 546.865)"/>
            <path id="prefix__Path_8377" d="M-2679.9-590.394h-46.4a2.939 2.939 0 00-2.939 2.939V-586a2.939 2.939 0 012.939-2.939h46.4a2.938 2.938 0 012.938 2.939v-1.455a2.938 2.938 0 00-2.938-2.939z" data-name="Path 8377" transform="translate(2729.243 617.367)" style="fill:#f9ee0b"/>
            <path id="prefix__Path_8378" d="M-2679.9-312.325h-46.4a2.94 2.94 0 01-2.939-2.939v3.176a2.94 2.94 0 002.939 2.939h46.4a2.939 2.939 0 002.938-2.939v-3.176a2.939 2.939 0 01-2.938 2.939z" class="prefix__cls-8" data-name="Path 8378" transform="translate(2729.243 379.658)"/>
            <path id="prefix__Path_8379" d="M-2577.533-510.241v12.251h-5.568v-12.251a6.807 6.807 0 01-4.028-6.212 6.811 6.811 0 016.811-6.812 6.811 6.811 0 016.811 6.812 6.807 6.807 0 01-4.026 6.212z" class="prefix__cls-4" data-name="Path 8379" transform="translate(2606.458 559.367)"/>
            <path id="prefix__Path_8380" d="M-2583.1-470.456a6.814 6.814 0 01-4.008-5.688c-.008.135-.02.267-.02.4a6.807 6.807 0 004.028 6.212v-.926z" class="prefix__cls-6" data-name="Path 8380" transform="translate(2606.458 518.656)"/>
            <path id="prefix__Path_8381" d="M-2516.586-470.456v.926a6.808 6.808 0 004.028-6.212c0-.136-.012-.268-.021-.4a6.812 6.812 0 01-4.007 5.688z" class="prefix__cls-6" data-name="Path 8381" transform="translate(2545.511 518.656)"/>
            <path id="prefix__Path_8382" d="M-2557.518-343.328h5.567v-.926h-5.567v.926z" class="prefix__cls-6" data-name="Path 8382" transform="translate(2580.875 404.705)"/>
        </g>
        <g id="prefix__Group_11232" data-name="Group 11232" transform="translate(153.135 123.988)">
            <path id="prefix__Path_8114" d="M-1366.375-1107.381a7.525 7.525 0 01-7.524 7.524h-20.36a7.525 7.525 0 01-7.527-7.524 7.526 7.526 0 017.527-7.526h20.36a7.526 7.526 0 017.524 7.526z" class="prefix__cls-10" data-name="Path 8114" transform="translate(1409.854 1133.061)"/>
            <path id="prefix__Path_8115" d="M-1431.186-1164.006a17.063 17.063 0 0017.062 17.062 17.063 17.063 0 0017.062-17.062 17.062 17.062 0 00-17.062-17.061 17.062 17.062 0 00-17.062 17.061z" class="prefix__cls-10" data-name="Path 8115" transform="translate(1431.186 1181.067)"/>
        </g>
        <g id="prefix__Group_11233" data-name="Group 11233" transform="translate(117.106 25.251)">
            <path id="prefix__Path_8383" d="M-1752.084-570.375a14.345 14.345 0 0014.345-14.346 14.343 14.343 0 00-14.345-14.346 14.344 14.344 0 00-14.346 14.346 14.345 14.345 0 0014.346 14.346zm-15.74-1.512a20.223 20.223 0 01-4.572-12.834 20.314 20.314 0 0120.312-20.314 20.313 20.313 0 0120.311 20.314 20.313 20.313 0 01-20.311 20.311 20.235 20.235 0 01-13.646-5.268l-2.89 2.684-2-2.3 2.793-2.6z" data-name="Path 8383" transform="translate(1788.207 605.034)" style="fill:#89e35b"/>
            <path id="prefix__Path_8384" d="M-1621.288-471.505l-13.119 12.167a3.629 3.629 0 01-5.126-.195 3.625 3.625 0 01.192-5.123l13.122-12.167q.144-.132.3-.247a3.358 3.358 0 014.5.584l.3.34a3.349 3.349 0 01.083 4.39c-.077.085-.159.17-.247.25z" data-name="Path 8384" transform="translate(1640.5 512.632)" style="fill:#50cc1a"/>
        </g>
        <g id="prefix__Group_11230" data-name="Group 11230" transform="translate(54.53 97.179)">
            <path id="prefix__Path_8366" d="M-2562.638-1159.845c-32.3 0-56.115 12.931-56.115 12.931 0 72.727 56.115 93.97 56.115 93.97s56.114-21.242 56.114-93.97c0 0-23.819-12.931-56.114-12.931z" data-name="Path 8366" transform="translate(2618.753 1159.845)" style="fill:#5b4772"/>
            <path id="prefix__Path_8367" d="M-2094.592-1146.914s-23.819-12.931-56.114-12.931v106.9s56.114-21.242 56.114-93.97z" data-name="Path 8367" transform="translate(2206.821 1159.845)" style="fill:#9486b3"/>
            <path id="prefix__Path_8368" d="M-2538.3-1032.3a87.478 87.478 0 01-25.907-18.652 91.908 91.908 0 01-18.488-27.861c-5.35-12.5-8.174-26.566-8.4-41.841a112.982 112.982 0 0113.817-5.413 129.312 129.312 0 0138.981-6.25 128.284 128.284 0 0152.8 11.664c-.23 15.274-3.055 29.342-8.4 41.84a91.873 91.873 0 01-18.488 27.861 87.447 87.447 0 01-25.915 18.652z" class="prefix__cls-5" data-name="Path 8368" transform="translate(2594.411 1135.617)"/>
            <path id="prefix__Path_8369" d="M-2513.71-1011.714a86.141 86.141 0 01-23.536-17.3 88.637 88.637 0 01-17.825-26.865 105.776 105.776 0 01-8.088-38.453 114.994 114.994 0 0111.48-4.361 125.972 125.972 0 0137.969-6.091 126 126 0 0149.45 10.455 105.814 105.814 0 01-8.087 38.45 88.652 88.652 0 01-17.827 26.865 86.133 86.133 0 01-23.536 17.3z" class="prefix__cls-10" data-name="Path 8369" transform="translate(2569.824 1111.391)"/>
            <path id="prefix__Path_8370" d="M-2150.706-1011.714a86.129 86.129 0 0023.535-17.3 88.651 88.651 0 0017.826-26.865 105.809 105.809 0 008.088-38.45 126 126 0 00-49.449-10.455v93.076z" data-name="Path 8370" transform="translate(2206.821 1111.391)" style="fill:#5cc1d0"/>
            <path id="prefix__Path_8371" d="M-2250.14-883.687a2.412 2.412 0 01-.729 1.776l-18.878 18.928-3.545 3.555a2.417 2.417 0 01-1.774.733 2.413 2.413 0 01-1.777-.728l-3.556-3.546-9.464-9.439a2.412 2.412 0 01-.732-1.774 2.41 2.41 0 01.728-1.777l3.546-3.556a2.419 2.419 0 011.774-.734 2.417 2.417 0 011.777.729l7.687 7.692 17.1-17.176a2.418 2.418 0 011.775-.734 2.42 2.42 0 011.777.729l3.556 3.546a2.418 2.418 0 01.732 1.775z" class="prefix__cls-5" data-name="Path 8371" transform="translate(2329.938 922.12)"/>
        </g>
        <path id="prefix__Path_8385" d="M-1734.858-1303.751a2.717 2.717 0 01-2.716-2.717 2.717 2.717 0 012.716-2.717 2.717 2.717 0 012.719 2.717 2.718 2.718 0 01-2.719 2.717zm-10.4 0a2.718 2.718 0 01-2.72-2.717 2.718 2.718 0 012.72-2.717 2.716 2.716 0 012.715 2.717 2.717 2.717 0 01-2.715 2.717zm5.2-13.807a11.517 11.517 0 00-11.517 11.518v12.255h3.779v-2.258h3.209v2.258h2.956v-2.258h3.209v2.258h2.957v-2.258h3.209v2.258h3.718v-12.255a11.518 11.518 0 00-11.521-11.518z" data-name="Path 8385" transform="translate(1836.686 1375.775)" style="fill:#08b29d"/>
    </g>
</svg>
