<svg xmlns="http://www.w3.org/2000/svg" width="240" height="240" viewBox="0 0 240 240">
    <defs>
        <style>
            .prefix__cls-2{fill:#baf4ee}.prefix__cls-4{fill:#ffb031}.prefix__cls-5{fill:#ff9433}.prefix__cls-7{fill:#00c8b7}.prefix__cls-9{fill:#fff}.prefix__cls-12{fill:#d9dbdb}
        </style>
    </defs>
    <g id="prefix__Group_11250" data-name="Group 11250" transform="translate(-9267 -8789)">
        <path id="prefix__Rectangle_7504" d="M0 0H240V240H0z" data-name="Rectangle 7504" transform="translate(9267 8789)" style="fill:none"/>
        <g id="prefix__Group_11227" data-name="Group 11227" transform="translate(9277.8 8814.2)">
            <g id="prefix__Group_11225" data-name="Group 11225" transform="translate(1.949)">
                <g id="prefix__Group_11214" data-name="Group 11214" transform="translate(1.96)">
                    <circle id="prefix__Ellipse_3490" cx="74.707" cy="74.707" r="74.707" class="prefix__cls-2" data-name="Ellipse 3490" transform="rotate(-45 127.533 52.826)"/>
                    <path id="prefix__Path_8068" d="M-556.425 119.174v25.117a75.221 75.221 0 01-9.27 10.783v-35.9h-.014v-.085c-.043-.186-4.55-3.923-8.016-6.761v-1.568l4.193-1.085a7.977 7.977 0 015.149.4c.727.313 1.483.613 2.239.856v3.281a73.013 73.013 0 015.7 4.878v.085z" data-name="Path 8068" transform="translate(723.093 4.435)" style="fill:#7fd6cb;opacity:.73"/>
                </g>
                <g id="prefix__Group_11224" data-name="Group 11224" transform="translate(0 9.801)">
                    <g id="prefix__Group_11215" data-name="Group 11215" transform="translate(1.285)">
                        <path id="prefix__Path_8069" d="M-698.76 22.709l21.923 51.438 16.023-10.962 9.286 13.492 1.676-22.761 19.391-11.816z" class="prefix__cls-4" data-name="Path 8069" transform="translate(698.76 -22.709)"/>
                        <path id="prefix__Path_8070" d="M-660.263 58.617l-19.575 13.4 16.023-10.962 9.286 13.492 1.676-22.761-30.9-18.4z" class="prefix__cls-5" data-name="Path 8070" transform="translate(701.761 -20.575)"/>
                        <path id="prefix__Path_8071" d="M-653.264 57.363l-30.49-23.982 30.9 18.4z" data-name="Path 8071" transform="translate(701.761 -20.575)" style="fill:#f73"/>
                    </g>
                    <g id="prefix__Group_11216" data-name="Group 11216" transform="translate(18.834 57.011)">
                        <path id="prefix__Path_8072" d="M-658.964 73.592c-.173-1-.392-2-.652-2.972l1.5-.4c.272 1.015.5 2.062.682 3.109z" class="prefix__cls-7" data-name="Path 8072" transform="translate(689.04 -70.218)"/>
                        <path id="prefix__Path_8073" d="M-672.213 106.954a12.86 12.86 0 01-6.251-2.086l.86-1.3a11.318 11.318 0 005.494 1.829zm6.464-1.27l-.688-1.4a15.657 15.657 0 004.656-3.665l1.158 1.039a17.183 17.183 0 01-5.125 4.026zm-17.045-5.784a12.848 12.848 0 01-1.342-5.654c0-.157 0-.316.011-.473l.018-.337 1.552.114-.016.283c0 .14-.008.277-.008.413a11.292 11.292 0 001.179 4.964zm60.21-.355l-.007-1.556c2.027-.01 4.114-.092 6.2-.246l.114 1.552c-2.123.154-4.243.239-6.307.249zm-6.312-.2l-.994-.077c-1.913-.16-3.646-.376-5.3-.661l.265-1.534c1.608.278 3.3.488 5.164.644l.972.073zm18.888-.708l-.21-1.542c2-.272 4.066-.613 6.132-1.012l.3 1.528c-2.1.398-4.192.745-6.222 1.021zm-31.364-1.573a30.127 30.127 0 01-5.1-2.258c-.245-.137-.487-.28-.728-.425l.8-1.333c.227.137.455.271.686.4a28.633 28.633 0 004.836 2.143zm-15.53-.62l-1.35-.774a34.844 34.844 0 002.567-5.55l1.464.528a36.476 36.476 0 01-2.679 5.79zm59.262-.172l-.366-1.512c1.946-.473 3.972-1.009 6.019-1.595l.428 1.5c-2.068.583-4.114 1.124-6.082 1.601zm12.092-3.446l-.48-1.481q2.968-.961 5.905-2.008l.52 1.466q-2.957 1.046-5.946 2.017zm-66.845-2.051a43.069 43.069 0 00-4.633-3.048l-.52-.276.713-1.384c.185.095.371.194.553.294a44.955 44.955 0 014.8 3.156zm-27.982-2.34l-1.087-1.112a13.282 13.282 0 015.726-3.073l.523 1.468a12.119 12.119 0 00-5.162 2.711zm17.144-3.038a24.736 24.736 0 00-5.394-.6l-.631.008-.037-1.556a26.375 26.375 0 016.4.628zm10.652-.917l-1.532-.272a36.131 36.131 0 00.553-6.094l1.555.007a37.526 37.526 0 01-.575 6.353z" class="prefix__cls-7" data-name="Path 8073" transform="translate(684.136 -68.64)"/>
                        <path id="prefix__Path_8074" d="M-591.969 87.284l-.553-1.454q1.451-.554 2.9-1.122l.565 1.451q-1.45.567-2.912 1.125z" class="prefix__cls-7" data-name="Path 8074" transform="translate(702.459 -67.32)"/>
                    </g>
                    <path id="prefix__Path_8075" d="M-550.976 121.174a1.555 1.555 0 01-1.547-1.406 1.554 1.554 0 011.4-1.7 36.967 36.967 0 0024.362-12.642 1.555 1.555 0 012.195-.151 1.554 1.554 0 01.152 2.195 40.054 40.054 0 01-26.408 13.7c-.054.002-.104.004-.154.004z" class="prefix__cls-7" data-name="Path 8075" transform="translate(729.292 -6.272)"/>
                    <g id="prefix__Group_11220" data-name="Group 11220" transform="translate(50.918 43.682)">
                        <g id="prefix__Group_11219" data-name="Group 11219">
                            <path id="prefix__Path_8076" d="M-548.968 124.825l-54.216 31.975-54.216-31.975a.31.31 0 01.008-.088c.044-.2 3.037-2.7 7.6-6.409.045-.035.079-.07.124-.106 14.97-12.155 46.483-37.046 46.483-37.046s31.512 24.892 46.483 37.046c4.634 3.761 7.679 6.3 7.723 6.515a.275.275 0 01.011.088z" data-name="Path 8076" transform="translate(657.4 -54.698)" style="fill:#7a4c08"/>
                            <g id="prefix__Group_11217" data-name="Group 11217" transform="translate(8.933)">
                                <path id="prefix__Path_8077" d="M-582.377 59.111h-58.5a9.084 9.084 0 00-9.084 9.085v88.444a9.084 9.084 0 009.084 9.084h73.3a9.084 9.084 0 009.084-9.084V83z" class="prefix__cls-9" data-name="Path 8077" transform="translate(649.956 -59.111)"/>
                                <path id="prefix__Path_8078" d="M-593.64 73.912A9.085 9.085 0 00-584.555 83h14.8l-23.885-23.889z" data-name="Path 8078" transform="translate(661.219 -59.111)" style="fill:#e6e8e8"/>
                                <rect id="prefix__Rectangle_7502" width="26.653" height="26.653" data-name="Rectangle 7502" rx="2.697" transform="translate(13.836 14.95)" style="fill:#82ebe3"/>
                                <path id="prefix__Path_8079" d="M-587.369 99.953h-48.424a2.607 2.607 0 00-2.606 2.608 2.606 2.606 0 002.606 2.606h48.424a2.607 2.607 0 002.608-2.606 2.608 2.608 0 00-2.608-2.608z" class="prefix__cls-12" data-name="Path 8079" transform="translate(652.267 -50.943)"/>
                                <path id="prefix__Path_8080" d="M-587.369 110.777h-48.424a2.607 2.607 0 00-2.606 2.608 2.607 2.607 0 002.606 2.608h48.424a2.608 2.608 0 002.608-2.608 2.608 2.608 0 00-2.608-2.608z" class="prefix__cls-12" data-name="Path 8080" transform="translate(652.267 -48.778)"/>
                                <path id="prefix__Path_8081" d="M-609.36 121.277h-26.432a2.607 2.607 0 00-2.606 2.608 2.607 2.607 0 002.606 2.608h26.432a2.608 2.608 0 002.608-2.608 2.608 2.608 0 00-2.608-2.608z" class="prefix__cls-12" data-name="Path 8081" transform="translate(652.267 -46.678)"/>
                            </g>
                            <g id="prefix__Group_11218" data-name="Group 11218" transform="translate(.006 70.124)">
                                <path id="prefix__Path_8082" d="M-548.964 117.548v52.014a6.623 6.623 0 01-6.606 6.606h-95.236a6.609 6.609 0 01-6.589-6.606v-52.014l54.216 31.967z" class="prefix__cls-4" data-name="Path 8082" transform="translate(657.395 -117.548)"/>
                                <path id="prefix__Path_8083" d="M-551.1 170.489l-34.9-34.894-17.488 10.312-17.5-10.315-34.9 34.9a6.547 6.547 0 004.766 2.071h95.236a6.571 6.571 0 004.786-2.074z" class="prefix__cls-5" data-name="Path 8083" transform="translate(657.699 -113.939)"/>
                            </g>
                        </g>
                    </g>
                    <g id="prefix__Group_11223" data-name="Group 11223" transform="translate(141.028 42.245)">
                        <g id="prefix__Group_11222" data-name="Group 11222">
                            <path id="prefix__Path_8084" d="M-553.032 58.075a32.706 32.706 0 00-29.191 30.038 32.34 32.34 0 005.713 20.866 7.9 7.9 0 01.752 7.529l-2.574 6.2 10.52-2.728a7.93 7.93 0 015.15.4 32.516 32.516 0 0016.142 2.521 32.683 32.683 0 0029.192-29.173 32.583 32.583 0 00-35.704-35.653z" class="prefix__cls-7" data-name="Path 8084" transform="translate(582.308 -57.913)"/>
                            <g id="prefix__Group_11221" data-name="Group 11221" transform="translate(15.526 18.83)">
                                <path id="prefix__Path_8085" d="M-551.519 103.484l1.789-1.789s-1.421-3.352 4.54-9c3.547-3.364 4.342-6.62 4.052-9.282a9.3 9.3 0 00-8.158-8.159c-2.663-.288-5.92.505-9.282 4.054-5.651 5.96-9 4.538-9 4.538l-1.79 1.79z" class="prefix__cls-9" data-name="Path 8085" transform="translate(569.369 -73.286)"/>
                                <path id="prefix__Path_8086" d="M-565.844 89.66a4.933 4.933 0 00.49 6.4 4.936 4.936 0 006.4.49z" class="prefix__cls-9" data-name="Path 8086" transform="translate(569.883 -70.394)"/>
                                <path id="prefix__Path_8087" d="M-544.042 77.745l-1.115 1.115a10.766 10.766 0 00-3.436-3.418l1.123-1.124a2.426 2.426 0 013.436 0 2.424 2.424 0 01-.008 3.427z" class="prefix__cls-9" data-name="Path 8087" transform="translate(573.524 -73.605)"/>
                            </g>
                        </g>
                        <path id="prefix__Path_8088" d="M-551.1 57.934a28.141 28.141 0 0120.062 26.95 28.141 28.141 0 01-28.141 28.141 28.033 28.033 0 01-20.677-9.1 32.7 32.7 0 002.856 5.052 7.9 7.9 0 01.752 7.529l-2.574 6.2 10.52-2.728a7.93 7.93 0 015.15.4 32.516 32.516 0 0016.142 2.521 32.683 32.683 0 0029.192-29.173A32.569 32.569 0 00-551.1 57.934z" data-name="Path 8088" transform="translate(582.797 -57.911)" style="fill:#08b29d"/>
                    </g>
                    <path id="prefix__Path_8089" d="M-696.687 35.584l7.11 16.318a1.638 1.638 0 01-.853 2.159l-.254.109a1.639 1.639 0 01-2.16-.868l-6.856-16.428a1.641 1.641 0 01.943-2.174 1.64 1.64 0 012.07.884z" class="prefix__cls-4" data-name="Path 8089" transform="translate(699.831 -20.331)"/>
                </g>
            </g>
            <g id="prefix__Group_11226" data-name="Group 11226" transform="translate(0 4.768)">
                <path id="prefix__Path_8090" d="M-673.126 131.117a5.228 5.228 0 00-5.228 5.228 5.228 5.228 0 005.228 5.227 5.228 5.228 0 005.228-5.227 5.228 5.228 0 00-5.228-5.228zm0 7.344a2.116 2.116 0 01-2.117-2.116 2.117 2.117 0 012.117-2.117 2.116 2.116 0 012.116 2.117 2.115 2.115 0 01-2.116 2.116z" class="prefix__cls-2" data-name="Path 8090" transform="translate(706.076 4.006)"/>
                <path id="prefix__Path_8091" d="M-556.379 148.746a5.229 5.229 0 00-5.228 5.228 5.229 5.229 0 005.228 5.228 5.229 5.229 0 005.228-5.228 5.229 5.229 0 00-5.228-5.228zm0 7.345a2.117 2.117 0 01-2.117-2.117 2.116 2.116 0 012.117-2.116 2.115 2.115 0 012.116 2.116 2.116 2.116 0 01-2.116 2.117z" class="prefix__cls-2" data-name="Path 8091" transform="translate(729.425 7.532)"/>
                <path id="prefix__Path_8092" d="M-520.939 81.079a4 4 0 00-4 4 4 4 0 004 4 4 4 0 004-4 4 4 0 00-4-4zm0 5.623a1.62 1.62 0 01-1.621-1.62 1.62 1.62 0 011.621-1.62 1.62 1.62 0 011.62 1.62 1.62 1.62 0 01-1.62 1.618z" class="prefix__cls-2" data-name="Path 8092" transform="translate(736.758 -6.002)"/>
                <path id="prefix__Path_8093" d="M-579.639 27.717a4.232 4.232 0 00-4.232 4.232 4.232 4.232 0 004.232 4.232 4.232 4.232 0 004.232-4.232 4.232 4.232 0 00-4.232-4.232zm0 5.946a1.713 1.713 0 01-1.714-1.714 1.713 1.713 0 011.714-1.712 1.713 1.713 0 011.712 1.712 1.713 1.713 0 01-1.712 1.714z" class="prefix__cls-2" data-name="Path 8093" transform="translate(724.972 -16.674)"/>
                <path id="prefix__Path_8094" d="M-692.42 109.9a4.45 4.45 0 00-4.451 4.45 4.45 4.45 0 004.451 4.45 4.449 4.449 0 004.45-4.45 4.449 4.449 0 00-4.45-4.45z" class="prefix__cls-2" data-name="Path 8094" transform="translate(702.372 -.239)"/>
                <path id="prefix__Path_8095" d="M-543.848 122.171a3.236 3.236 0 00-3.236 3.236 3.236 3.236 0 003.236 3.236 3.236 3.236 0 003.236-3.236 3.236 3.236 0 00-3.236-3.236z" class="prefix__cls-2" data-name="Path 8095" transform="translate(732.33 2.216)"/>
                <path id="prefix__Path_8096" d="M-632.915 28.826a4.731 4.731 0 00-4.73 4.73 4.731 4.731 0 004.73 4.73 4.731 4.731 0 004.73-4.73 4.731 4.731 0 00-4.73-4.73z" class="prefix__cls-2" data-name="Path 8096" transform="translate(714.218 -16.453)"/>
                <path id="prefix__Path_8097" d="M-612.026 171.614a3.447 3.447 0 00-3.446 3.448 3.447 3.447 0 003.446 3.446 3.447 3.447 0 003.446-3.446 3.447 3.447 0 00-3.446-3.448z" class="prefix__cls-2" data-name="Path 8097" transform="translate(718.652 12.105)"/>
                <path id="prefix__Path_8098" d="M-556.324 44.03a4.047 4.047 0 00-4.046 4.046 4.047 4.047 0 004.046 4.045 4.046 4.046 0 004.045-4.045 4.046 4.046 0 00-4.045-4.046z" class="prefix__cls-2" data-name="Path 8098" transform="translate(729.673 -13.412)"/>
                <circle id="prefix__Ellipse_3491" cx="2.303" cy="2.303" r="2.303" class="prefix__cls-2" data-name="Ellipse 3491" transform="translate(27.744 62.072)"/>
                <path id="prefix__Path_8099" d="M-519.787 64.266a3.929 3.929 0 00-3.929 3.929 3.928 3.928 0 003.929 3.929 3.927 3.927 0 003.929-3.929 3.928 3.928 0 00-3.929-3.929z" class="prefix__cls-2" data-name="Path 8099" transform="translate(737.003 -9.365)"/>
                <circle id="prefix__Ellipse_3492" cx="2.507" cy="2.507" r="2.507" class="prefix__cls-2" data-name="Ellipse 3492" transform="translate(5.238 75.692)"/>
                <path id="prefix__Path_8100" d="M-606.19 22.483l1.574-1.574a1.407 1.407 0 000-1.985 1.407 1.407 0 00-1.985 0l-1.574 1.574-1.574-1.574a1.407 1.407 0 00-1.985 0 1.407 1.407 0 000 1.985l1.574 1.574-1.574 1.574a1.407 1.407 0 000 1.985 1.407 1.407 0 001.985 0l1.574-1.574 1.574 1.574a1.407 1.407 0 001.985 0 1.407 1.407 0 000-1.985z" class="prefix__cls-2" data-name="Path 8100" transform="translate(719.318 -18.515)"/>
                <path id="prefix__Path_8101" d="M-695.5 62.133l1.574-1.574a1.407 1.407 0 000-1.985 1.407 1.407 0 00-1.985 0l-1.574 1.574-1.574-1.574a1.407 1.407 0 00-1.985 0 1.409 1.409 0 000 1.985l1.574 1.574-1.574 1.574a1.409 1.409 0 000 1.985 1.409 1.409 0 001.985 0l1.574-1.574 1.574 1.574a1.409 1.409 0 001.985 0 1.407 1.407 0 000-1.985z" class="prefix__cls-2" data-name="Path 8101" transform="translate(701.456 -10.585)"/>
                <path id="prefix__Path_8102" d="M-540.907 142.149l1.333-1.333a1.193 1.193 0 000-1.681 1.193 1.193 0 00-1.681 0l-1.333 1.333-1.333-1.333a1.193 1.193 0 00-1.681 0 1.193 1.193 0 000 1.681l1.333 1.333-1.333 1.333a1.193 1.193 0 000 1.681 1.193 1.193 0 001.681 0l1.333-1.333 1.333 1.333a1.193 1.193 0 001.681 0 1.193 1.193 0 000-1.681z" class="prefix__cls-2" data-name="Path 8102" transform="translate(732.557 5.54)"/>
            </g>
        </g>
    </g>
</svg>
